<svg width="0" height="0" class="hidden">
  <symbol xmlns="http://www.w3.org/2000/svg" viewBox="0 0 448 512" id="line-brands">
    <path d="M272.1 204.2v71.1c0 1.8-1.4 3.2-3.2 3.2h-11.4c-1.1 0-2.1-.6-2.6-1.3l-32.6-44v42.2c0 1.8-1.4 3.2-3.2 3.2h-11.4c-1.8 0-3.2-1.4-3.2-3.2v-71.1c0-1.8 1.4-3.2 3.2-3.2H219c1 0 2.1.5 2.6 1.4l32.6 44v-42.2c0-1.8 1.4-3.2 3.2-3.2h11.4c1.8-.1 3.3 1.4 3.3 3.1zm-82-3.2h-11.4c-1.8 0-3.2 1.4-3.2 3.2v71.1c0 1.8 1.4 3.2 3.2 3.2h11.4c1.8 0 3.2-1.4 3.2-3.2v-71.1c0-1.7-1.4-3.2-3.2-3.2zm-27.5 59.6h-31.1v-56.4c0-1.8-1.4-3.2-3.2-3.2h-11.4c-1.8 0-3.2 1.4-3.2 3.2v71.1c0 .9.3 1.6.9 2.2.6.5 1.3.9 2.2.9h45.7c1.8 0 3.2-1.4 3.2-3.2v-11.4c0-1.7-1.4-3.2-3.1-3.2zM332.1 201h-45.7c-1.7 0-3.2 1.4-3.2 3.2v71.1c0 1.7 1.4 3.2 3.2 3.2h45.7c1.8 0 3.2-1.4 3.2-3.2v-11.4c0-1.8-1.4-3.2-3.2-3.2H301v-12h31.1c1.8 0 3.2-1.4 3.2-3.2V234c0-1.8-1.4-3.2-3.2-3.2H301v-12h31.1c1.8 0 3.2-1.4 3.2-3.2v-11.4c-.1-1.7-1.5-3.2-3.2-3.2zM448 113.7V399c-.1 44.8-36.8 81.1-81.7 81H81c-44.8-.1-81.1-36.9-81-81.7V113c.1-44.8 36.9-81.1 81.7-81H367c44.8.1 81.1 36.8 81 81.7zm-61.6 122.6c0-73-73.2-132.4-163.1-132.4-89.9 0-163.1 59.4-163.1 132.4 0 65.4 58 120.2 136.4 130.6 19.1 4.1 16.9 11.1 12.6 36.8-.7 4.1-3.3 16.1 14.1 8.8 17.4-7.3 93.9-55.3 128.2-94.7 23.6-26 34.9-52.3 34.9-81.5z"></path>
  </symbol>
  <symbol xmlns="http://www.w3.org/2000/svg" viewBox="0 0 512 512" id="wordpress-brands">
    <path d="M61.7 169.4l101.5 278C92.2 413 43.3 340.2 43.3 256c0-30.9 6.6-60.1 18.4-86.6zm337.9 75.9c0-26.3-9.4-44.5-17.5-58.7-10.8-17.5-20.9-32.4-20.9-49.9 0-19.6 14.8-37.8 35.7-37.8.9 0 1.8.1 2.8.2-37.9-34.7-88.3-55.9-143.7-55.9-74.3 0-139.7 38.1-177.8 95.9 5 .2 9.7.3 13.7.3 22.2 0 56.7-2.7 56.7-2.7 11.5-.7 12.8 16.2 1.4 17.5 0 0-11.5 1.3-24.3 2l77.5 230.4L249.8 247l-33.1-90.8c-11.5-.7-22.3-2-22.3-2-11.5-.7-10.1-18.2 1.3-17.5 0 0 35.1 2.7 56 2.7 22.2 0 56.7-2.7 56.7-2.7 11.5-.7 12.8 16.2 1.4 17.5 0 0-11.5 1.3-24.3 2l76.9 228.7 21.2-70.9c9-29.4 16-50.5 16-68.7zm-139.9 29.3l-63.8 185.5c19.1 5.6 39.2 8.7 60.1 8.7 24.8 0 48.5-4.3 70.6-12.1-.6-.9-1.1-1.9-1.5-2.9l-65.4-179.2zm183-120.7c.9 6.8 1.4 14 1.4 21.9 0 21.6-4 45.8-16.2 76.2l-65 187.9C426.2 403 468.7 334.5 468.7 256c0-37-9.4-71.8-26-102.1zM504 256c0 136.8-111.3 248-248 248C119.2 504 8 392.7 8 256 8 119.2 119.2 8 256 8c136.7 0 248 111.2 248 248zm-11.4 0c0-130.5-106.2-236.6-236.6-236.6C125.5 19.4 19.4 125.5 19.4 256S125.6 492.6 256 492.6c130.5 0 236.6-106.1 236.6-236.6z"></path>
  </symbol>
  <symbol xmlns="http://www.w3.org/2000/svg" viewBox="0 0 448 512" id="qq-brands">
    <path d="M433.754 420.445c-11.526 1.393-44.86-52.741-44.86-52.741 0 31.345-16.136 72.247-51.051 101.786 16.842 5.192 54.843 19.167 45.803 34.421-7.316 12.343-125.51 7.881-159.632 4.037-34.122 3.844-152.316 8.306-159.632-4.037-9.045-15.25 28.918-29.214 45.783-34.415-34.92-29.539-51.059-70.445-51.059-101.792 0 0-33.334 54.134-44.859 52.741-5.37-.65-12.424-29.644 9.347-99.704 10.261-33.024 21.995-60.478 40.144-105.779C60.683 98.063 108.982.006 224 0c113.737.006 163.156 96.133 160.264 214.963 18.118 45.223 29.912 72.85 40.144 105.778 21.768 70.06 14.716 99.053 9.346 99.704z"></path>
  </symbol>
  <symbol xmlns="http://www.w3.org/2000/svg" viewBox="0 0 512 512" id="snapchat-brands">
    <path d="M496.926,366.6c-3.373-9.176-9.8-14.086-17.112-18.153-1.376-.806-2.641-1.451-3.72-1.947-2.182-1.128-4.414-2.22-6.634-3.373-22.8-12.09-40.609-27.341-52.959-45.42a102.889,102.889,0,0,1-9.089-16.12c-1.054-3.013-1-4.724-.248-6.287a10.221,10.221,0,0,1,2.914-3.038c3.918-2.591,7.96-5.22,10.7-6.993,4.885-3.162,8.754-5.667,11.246-7.44,9.362-6.547,15.909-13.5,20-21.278a42.371,42.371,0,0,0,2.1-35.191c-6.2-16.318-21.613-26.449-40.287-26.449a55.543,55.543,0,0,0-11.718,1.24c-1.029.224-2.059.459-3.063.72.174-11.16-.074-22.94-1.066-34.534-3.522-40.758-17.794-62.123-32.674-79.16A130.167,130.167,0,0,0,332.1,36.443C309.515,23.547,283.91,17,256,17S202.6,23.547,180,36.443a129.735,129.735,0,0,0-33.281,26.783c-14.88,17.038-29.152,38.44-32.673,79.161-.992,11.594-1.24,23.435-1.079,34.533-1-.26-2.021-.5-3.051-.719a55.461,55.461,0,0,0-11.717-1.24c-18.687,0-34.125,10.131-40.3,26.449a42.423,42.423,0,0,0,2.046,35.228c4.105,7.774,10.652,14.731,20.014,21.278,2.48,1.736,6.361,4.24,11.246,7.44,2.641,1.711,6.5,4.216,10.28,6.72a11.054,11.054,0,0,1,3.3,3.311c.794,1.624.818,3.373-.36,6.6a102.02,102.02,0,0,1-8.94,15.785c-12.077,17.669-29.363,32.648-51.434,44.639C32.355,348.608,20.2,352.75,15.069,366.7c-3.868,10.528-1.339,22.506,8.494,32.6a49.137,49.137,0,0,0,12.4,9.387,134.337,134.337,0,0,0,30.342,12.139,20.024,20.024,0,0,1,6.126,2.741c3.583,3.137,3.075,7.861,7.849,14.78a34.468,34.468,0,0,0,8.977,9.127c10.019,6.919,21.278,7.353,33.207,7.811,10.776.41,22.989.881,36.939,5.481,5.778,1.91,11.78,5.605,18.736,9.92C194.842,480.951,217.707,495,255.973,495s61.292-14.123,78.118-24.428c6.907-4.24,12.872-7.9,18.489-9.758,13.949-4.613,26.163-5.072,36.939-5.481,11.928-.459,23.187-.893,33.206-7.812a34.584,34.584,0,0,0,10.218-11.16c3.434-5.84,3.348-9.919,6.572-12.771a18.971,18.971,0,0,1,5.753-2.629A134.893,134.893,0,0,0,476.02,408.71a48.344,48.344,0,0,0,13.019-10.193l.124-.149C498.389,388.5,500.708,376.867,496.926,366.6Zm-34.013,18.277c-20.745,11.458-34.533,10.23-45.259,17.137-9.114,5.865-3.72,18.513-10.342,23.076-8.134,5.617-32.177-.4-63.239,9.858-25.618,8.469-41.961,32.822-88.038,32.822s-62.036-24.3-88.076-32.884c-31-10.255-55.092-4.241-63.239-9.858-6.609-4.563-1.24-17.211-10.341-23.076-10.739-6.907-24.527-5.679-45.26-17.075-13.206-7.291-5.716-11.8-1.314-13.937,75.143-36.381,87.133-92.552,87.666-96.719.645-5.046,1.364-9.014-4.191-14.148-5.369-4.96-29.189-19.7-35.8-24.316-10.937-7.638-15.748-15.264-12.2-24.638,2.48-6.485,8.531-8.928,14.879-8.928a27.643,27.643,0,0,1,5.965.67c12,2.6,23.659,8.617,30.392,10.242a10.749,10.749,0,0,0,2.48.335c3.6,0,4.86-1.811,4.612-5.927-.768-13.132-2.628-38.725-.558-62.644,2.84-32.909,13.442-49.215,26.04-63.636,6.051-6.932,34.484-36.976,88.857-36.976s82.88,29.92,88.931,36.827c12.611,14.421,23.225,30.727,26.04,63.636,2.071,23.919.285,49.525-.558,62.644-.285,4.327,1.017,5.927,4.613,5.927a10.648,10.648,0,0,0,2.48-.335c6.745-1.624,18.4-7.638,30.4-10.242a27.641,27.641,0,0,1,5.964-.67c6.386,0,12.4,2.48,14.88,8.928,3.546,9.374-1.24,17-12.189,24.639-6.609,4.612-30.429,19.343-35.8,24.315-5.568,5.134-4.836,9.1-4.191,14.149.533,4.228,12.511,60.4,87.666,96.718C468.629,373.011,476.119,377.524,462.913,384.877Z"></path>
  </symbol>
  <symbol xmlns="http://www.w3.org/2000/svg" viewBox="0 0 576 512" id="weixin-brands">
    <path d="M385.2 167.6c6.4 0 12.6.3 18.8 1.1C387.4 90.3 303.3 32 207.7 32 100.5 32 13 104.8 13 197.4c0 53.4 29.3 97.5 77.9 131.6l-19.3 58.6 68-34.1c24.4 4.8 43.8 9.7 68.2 9.7 6.2 0 12.1-.3 18.3-.8-4-12.9-6.2-26.6-6.2-40.8-.1-84.9 72.9-154 165.3-154zm-104.5-52.9c14.5 0 24.2 9.7 24.2 24.4 0 14.5-9.7 24.2-24.2 24.2-14.8 0-29.3-9.7-29.3-24.2.1-14.7 14.6-24.4 29.3-24.4zm-136.4 48.6c-14.5 0-29.3-9.7-29.3-24.2 0-14.8 14.8-24.4 29.3-24.4 14.8 0 24.4 9.7 24.4 24.4 0 14.6-9.6 24.2-24.4 24.2zM563 319.4c0-77.9-77.9-141.3-165.4-141.3-92.7 0-165.4 63.4-165.4 141.3S305 460.7 397.6 460.7c19.3 0 38.9-5.1 58.6-9.9l53.4 29.3-14.8-48.6C534 402.1 563 363.2 563 319.4zm-219.1-24.5c-9.7 0-19.3-9.7-19.3-19.6 0-9.7 9.7-19.3 19.3-19.3 14.8 0 24.4 9.7 24.4 19.3 0 10-9.7 19.6-24.4 19.6zm107.1 0c-9.7 0-19.3-9.7-19.3-19.6 0-9.7 9.7-19.3 19.3-19.3 14.5 0 24.4 9.7 24.4 19.3.1 10-9.9 19.6-24.4 19.6z"></path>
  </symbol>
  <symbol xmlns="http://www.w3.org/2000/svg" viewBox="0 0 640 512" id="photo-film-solid">
    <path d="M352 432c0 8.836-7.164 16-16 16H176c-8.838 0-16-7.164-16-16L160 128H48C21.49 128 .0003 149.5 .0003 176v288c0 26.51 21.49 48 48 48h416c26.51 0 48-21.49 48-48L512 384h-160L352 432zM104 439c0 4.969-4.031 9-9 9h-30c-4.969 0-9-4.031-9-9v-30c0-4.969 4.031-9 9-9h30c4.969 0 9 4.031 9 9V439zM104 335c0 4.969-4.031 9-9 9h-30c-4.969 0-9-4.031-9-9v-30c0-4.969 4.031-9 9-9h30c4.969 0 9 4.031 9 9V335zM104 231c0 4.969-4.031 9-9 9h-30c-4.969 0-9-4.031-9-9v-30C56 196 60.03 192 65 192h30c4.969 0 9 4.031 9 9V231zM408 409c0-4.969 4.031-9 9-9h30c4.969 0 9 4.031 9 9v30c0 4.969-4.031 9-9 9h-30c-4.969 0-9-4.031-9-9V409zM591.1 0H239.1C213.5 0 191.1 21.49 191.1 48v256c0 26.51 21.49 48 48 48h352c26.51 0 48-21.49 48-48v-256C640 21.49 618.5 0 591.1 0zM303.1 64c17.68 0 32 14.33 32 32s-14.32 32-32 32C286.3 128 271.1 113.7 271.1 96S286.3 64 303.1 64zM574.1 279.6C571.3 284.8 565.9 288 560 288H271.1C265.1 288 260.5 284.6 257.7 279.3C255 273.9 255.5 267.4 259.1 262.6l70-96C332.1 162.4 336.9 160 341.1 160c5.11 0 9.914 2.441 12.93 6.574l22.35 30.66l62.74-94.11C442.1 98.67 447.1 96 453.3 96c5.348 0 10.34 2.672 13.31 7.125l106.7 160C576.6 268 576.9 274.3 574.1 279.6z"></path>
  </symbol>
</svg>